<?xml version="1.0" encoding="UTF-8"?>
<mxfile host="app.diagrams.net" agent="Mozilla/5.0 (Windows NT 10.0; Win64; x64) AppleWebKit/537.36 (KHTML, like Gecko) Chrome/136.0.0.0 Safari/537.36" version="27.1.1">
  <diagram id="gOci6S37oJtyyafHWX7Y" name="Page-9">
    <mxGraphModel dx="1684" dy="916" grid="0" gridSize="10" guides="1" tooltips="1" connect="1" arrows="1" fold="1" page="0" pageScale="1" pageWidth="850" pageHeight="1100" math="0" shadow="0">
      <root>
        <mxCell id="0" />
        <mxCell id="1" parent="0" />
        <mxCell id="dW56vIqUSqdHFLQPqZOG-66" value="" style="rounded=1;whiteSpace=wrap;html=1;fillColor=#f5f5f5;strokeColor=#666666;fontColor=#333333;" parent="1" vertex="1">
          <mxGeometry x="1005" y="694" width="558" height="427" as="geometry" />
        </mxCell>
        <mxCell id="dW56vIqUSqdHFLQPqZOG-67" value="" style="rounded=1;whiteSpace=wrap;html=1;fillColor=#f5f5f5;strokeColor=#666666;fontColor=#333333;" parent="1" vertex="1">
          <mxGeometry x="591" y="694" width="265" height="427" as="geometry" />
        </mxCell>
        <mxCell id="dW56vIqUSqdHFLQPqZOG-68" value="&lt;span style=&quot;font-weight: 700; text-wrap-mode: nowrap;&quot;&gt;Phase 1: KG Initialization&lt;/span&gt;" style="text;html=1;align=center;verticalAlign=middle;whiteSpace=wrap;rounded=0;" parent="1" vertex="1">
          <mxGeometry x="643" y="664" width="195" height="30" as="geometry" />
        </mxCell>
        <mxCell id="dW56vIqUSqdHFLQPqZOG-69" style="edgeStyle=orthogonalEdgeStyle;rounded=0;orthogonalLoop=1;jettySize=auto;html=1;" parent="1" source="dW56vIqUSqdHFLQPqZOG-71" edge="1">
          <mxGeometry relative="1" as="geometry">
            <mxPoint x="997.2500305175781" y="895" as="targetPoint" />
          </mxGeometry>
        </mxCell>
        <mxCell id="dW56vIqUSqdHFLQPqZOG-70" style="edgeStyle=orthogonalEdgeStyle;rounded=0;orthogonalLoop=1;jettySize=auto;html=1;entryX=1.009;entryY=0.471;entryDx=0;entryDy=0;entryPerimeter=0;" parent="1" source="dW56vIqUSqdHFLQPqZOG-71" target="dW56vIqUSqdHFLQPqZOG-67" edge="1">
          <mxGeometry relative="1" as="geometry" />
        </mxCell>
        <mxCell id="dW56vIqUSqdHFLQPqZOG-71" value="Product Code Changes" style="shape=image;verticalLabelPosition=bottom;labelBackgroundColor=default;verticalAlign=top;aspect=fixed;imageAspect=0;image=https://cdn-icons-png.flaticon.com/512/5769/5769042.png;fontStyle=1" parent="1" vertex="1">
          <mxGeometry x="889" y="855" width="80" height="80" as="geometry" />
        </mxCell>
        <mxCell id="dW56vIqUSqdHFLQPqZOG-72" value="&lt;span style=&quot;font-weight: bold; color: rgb(0, 0, 0); font-size: 10px; text-wrap-mode: wrap;&quot;&gt;ParseCodeElements(file)&lt;/span&gt;&lt;br style=&quot;color: rgb(0, 0, 0); font-size: 10px; text-wrap-mode: wrap;&quot;&gt;&lt;span style=&quot;color: rgb(0, 0, 0); font-size: 10px; text-wrap-mode: wrap;&quot;&gt;&lt;i&gt;CreateNode, CreateEdge, InitWeight&lt;/i&gt;&lt;/span&gt;" style="sketch=0;outlineConnect=0;fontColor=#232F3E;gradientColor=none;fillColor=#000000;strokeColor=none;dashed=0;verticalLabelPosition=bottom;verticalAlign=top;align=center;html=1;fontSize=12;fontStyle=0;aspect=fixed;pointerEvents=1;shape=mxgraph.aws4.emr_engine;" parent="1" vertex="1">
          <mxGeometry x="687" y="1007" width="78" height="59" as="geometry" />
        </mxCell>
        <mxCell id="dW56vIqUSqdHFLQPqZOG-73" value="" style="group" parent="1" connectable="0" vertex="1">
          <mxGeometry x="660" y="707" width="132" height="228" as="geometry" />
        </mxCell>
        <mxCell id="dW56vIqUSqdHFLQPqZOG-74" style="edgeStyle=orthogonalEdgeStyle;rounded=0;orthogonalLoop=1;jettySize=auto;html=1;" parent="dW56vIqUSqdHFLQPqZOG-73" target="dW56vIqUSqdHFLQPqZOG-77" edge="1">
          <mxGeometry relative="1" as="geometry">
            <mxPoint x="75" y="98" as="sourcePoint" />
          </mxGeometry>
        </mxCell>
        <mxCell id="dW56vIqUSqdHFLQPqZOG-75" style="edgeStyle=orthogonalEdgeStyle;rounded=0;orthogonalLoop=1;jettySize=auto;html=1;" parent="dW56vIqUSqdHFLQPqZOG-73" target="dW56vIqUSqdHFLQPqZOG-78" edge="1">
          <mxGeometry relative="1" as="geometry">
            <mxPoint x="75" y="98" as="sourcePoint" />
            <Array as="points">
              <mxPoint x="75" y="98" />
              <mxPoint x="103" y="98" />
            </Array>
          </mxGeometry>
        </mxCell>
        <mxCell id="dW56vIqUSqdHFLQPqZOG-76" value="&lt;b&gt;Source Code Repository&lt;/b&gt;" style="dashed=0;outlineConnect=0;html=1;align=center;labelPosition=center;verticalLabelPosition=bottom;verticalAlign=top;shape=mxgraph.weblogos.github" parent="dW56vIqUSqdHFLQPqZOG-73" vertex="1">
          <mxGeometry x="30" y="-7" width="75" height="75" as="geometry" />
        </mxCell>
        <mxCell id="dW56vIqUSqdHFLQPqZOG-77" value="&lt;b&gt;Product Code&lt;/b&gt;" style="sketch=0;outlineConnect=0;fillColor=#1ba1e2;strokeColor=#006EAF;dashed=0;verticalLabelPosition=bottom;verticalAlign=top;align=center;html=1;fontSize=12;fontStyle=0;aspect=fixed;pointerEvents=1;shape=mxgraph.aws4.source_code;fontColor=#000000;" parent="dW56vIqUSqdHFLQPqZOG-73" vertex="1">
          <mxGeometry y="150" width="57" height="78" as="geometry" />
        </mxCell>
        <mxCell id="dW56vIqUSqdHFLQPqZOG-78" value="&lt;b&gt;Test Code&lt;/b&gt;" style="sketch=0;outlineConnect=0;fontColor=#000000;fillColor=#a20025;strokeColor=#6F0000;dashed=0;verticalLabelPosition=bottom;verticalAlign=top;align=center;html=1;fontSize=12;fontStyle=0;aspect=fixed;pointerEvents=1;shape=mxgraph.aws4.source_code;" parent="dW56vIqUSqdHFLQPqZOG-73" vertex="1">
          <mxGeometry x="75" y="150" width="57" height="78" as="geometry" />
        </mxCell>
        <mxCell id="dW56vIqUSqdHFLQPqZOG-79" style="edgeStyle=orthogonalEdgeStyle;rounded=0;orthogonalLoop=1;jettySize=auto;html=1;" parent="1" target="dW56vIqUSqdHFLQPqZOG-72" edge="1">
          <mxGeometry relative="1" as="geometry">
            <mxPoint x="689" y="957" as="sourcePoint" />
            <Array as="points">
              <mxPoint x="689" y="957" />
              <mxPoint x="689" y="983" />
              <mxPoint x="726" y="983" />
            </Array>
          </mxGeometry>
        </mxCell>
        <mxCell id="dW56vIqUSqdHFLQPqZOG-80" style="edgeStyle=orthogonalEdgeStyle;rounded=0;orthogonalLoop=1;jettySize=auto;html=1;" parent="1" target="dW56vIqUSqdHFLQPqZOG-72" edge="1">
          <mxGeometry relative="1" as="geometry">
            <mxPoint x="763" y="958" as="sourcePoint" />
          </mxGeometry>
        </mxCell>
        <mxCell id="dW56vIqUSqdHFLQPqZOG-81" style="edgeStyle=orthogonalEdgeStyle;rounded=0;orthogonalLoop=1;jettySize=auto;html=1;curved=1;" parent="1" source="dW56vIqUSqdHFLQPqZOG-82" target="dW56vIqUSqdHFLQPqZOG-71" edge="1">
          <mxGeometry relative="1" as="geometry" />
        </mxCell>
        <mxCell id="dW56vIqUSqdHFLQPqZOG-82" value="&lt;b&gt;Developer&lt;/b&gt;" style="verticalLabelPosition=bottom;html=1;verticalAlign=top;align=center;strokeColor=#666666;fillColor=#f5f5f5;shape=mxgraph.azure.user;fontColor=#333333;" parent="1" vertex="1">
          <mxGeometry x="1257" y="544" width="67" height="75" as="geometry" />
        </mxCell>
        <mxCell id="dW56vIqUSqdHFLQPqZOG-83" value="&lt;span style=&quot;font-weight: 700; text-wrap-mode: nowrap;&quot;&gt;Phase 2: Change Analysis &amp;amp; Test Selection&lt;/span&gt;" style="text;html=1;align=center;verticalAlign=middle;whiteSpace=wrap;rounded=0;" parent="1" vertex="1">
          <mxGeometry x="1250" y="664" width="60" height="30" as="geometry" />
        </mxCell>
        <mxCell id="dW56vIqUSqdHFLQPqZOG-84" style="edgeStyle=orthogonalEdgeStyle;rounded=0;orthogonalLoop=1;jettySize=auto;html=1;exitX=1;exitY=0.5;exitDx=0;exitDy=0;entryX=0;entryY=0.5;entryDx=0;entryDy=0;" parent="1" source="dW56vIqUSqdHFLQPqZOG-86" target="dW56vIqUSqdHFLQPqZOG-93" edge="1">
          <mxGeometry relative="1" as="geometry" />
        </mxCell>
        <mxCell id="dW56vIqUSqdHFLQPqZOG-85" value="&lt;span style=&quot;font-size: 10px;&quot;&gt;Identified Semantic Changes (S)&lt;/span&gt;" style="edgeLabel;html=1;align=center;verticalAlign=middle;resizable=0;points=[];rotation=-90;labelBackgroundColor=none;" parent="dW56vIqUSqdHFLQPqZOG-84" connectable="0" vertex="1">
          <mxGeometry x="-0.0145" y="-1" relative="1" as="geometry">
            <mxPoint as="offset" />
          </mxGeometry>
        </mxCell>
        <mxCell id="dW56vIqUSqdHFLQPqZOG-86" value="&lt;b&gt;Semantic Change Analysis&lt;/b&gt;&lt;div&gt;&lt;br&gt;&lt;/div&gt;" style="rounded=1;whiteSpace=wrap;html=1;fillColor=#f8cecc;strokeColor=#b85450;verticalAlign=top;align=center;" parent="1" vertex="1">
          <mxGeometry x="1012" y="911" width="249" height="188" as="geometry" />
        </mxCell>
        <mxCell id="dW56vIqUSqdHFLQPqZOG-87" value="" style="group" parent="dW56vIqUSqdHFLQPqZOG-86" connectable="0" vertex="1">
          <mxGeometry x="16" y="28.2" width="216" height="141" as="geometry" />
        </mxCell>
        <mxCell id="dW56vIqUSqdHFLQPqZOG-88" value="&lt;i&gt;DetectLanguage and GetGitDiff&lt;/i&gt;" style="rounded=1;whiteSpace=wrap;html=1;fillColor=#ffe0b2;strokeColor=#f57c00;fontSize=10;" parent="dW56vIqUSqdHFLQPqZOG-87" vertex="1">
          <mxGeometry width="216" height="28.2" as="geometry" />
        </mxCell>
        <mxCell id="dW56vIqUSqdHFLQPqZOG-89" value="&lt;i&gt;FindAffectedNodes(hunk, G)&lt;/i&gt;" style="rounded=1;whiteSpace=wrap;html=1;fillColor=#ffe0b2;strokeColor=#f57c00;fontSize=10;" parent="dW56vIqUSqdHFLQPqZOG-87" vertex="1">
          <mxGeometry y="37.6" width="215.5146939875977" height="28.2" as="geometry" />
        </mxCell>
        <mxCell id="dW56vIqUSqdHFLQPqZOG-90" value="&lt;i&gt;ClassifyChangeType(...)&lt;/i&gt;" style="rounded=1;whiteSpace=wrap;html=1;fillColor=#ffe0b2;strokeColor=#f57c00;fontSize=10;" parent="dW56vIqUSqdHFLQPqZOG-87" vertex="1">
          <mxGeometry y="75.19999999999999" width="215.5146939875977" height="28.2" as="geometry" />
        </mxCell>
        <mxCell id="dW56vIqUSqdHFLQPqZOG-91" value="&lt;i&gt;CalculateInitialImpact(...)&lt;/i&gt;" style="rounded=1;whiteSpace=wrap;html=1;fillColor=#ffe0b2;strokeColor=#f57c00;fontSize=10;" parent="dW56vIqUSqdHFLQPqZOG-87" vertex="1">
          <mxGeometry y="112.8" width="215.5146939875977" height="28.2" as="geometry" />
        </mxCell>
        <mxCell id="dW56vIqUSqdHFLQPqZOG-92" value="" style="group" parent="1" connectable="0" vertex="1">
          <mxGeometry x="1306" y="912" width="251" height="186" as="geometry" />
        </mxCell>
        <mxCell id="dW56vIqUSqdHFLQPqZOG-93" value="&lt;b&gt;Impact Propagation&lt;/b&gt;" style="rounded=1;whiteSpace=wrap;html=1;fillColor=#f8cecc;strokeColor=#b85450;verticalAlign=top;align=center;container=0;" parent="dW56vIqUSqdHFLQPqZOG-92" vertex="1">
          <mxGeometry x="1" width="251" height="186.00000000000003" as="geometry" />
        </mxCell>
        <mxCell id="dW56vIqUSqdHFLQPqZOG-94" value="Queue Ops (Init, Enqueue, Dequeue)" style="rounded=1;whiteSpace=wrap;html=1;fillColor=#ffe0b2;strokeColor=#f57c00;fontSize=10;fontStyle=2" parent="dW56vIqUSqdHFLQPqZOG-92" vertex="1">
          <mxGeometry x="10" y="34.875" width="220" height="34.875" as="geometry" />
        </mxCell>
        <mxCell id="dW56vIqUSqdHFLQPqZOG-95" value="UpdateTestImpact and GetOutgoingEdges" style="rounded=1;whiteSpace=wrap;html=1;fillColor=#ffe0b2;strokeColor=#f57c00;fontSize=10;fontStyle=2" parent="dW56vIqUSqdHFLQPqZOG-92" vertex="1">
          <mxGeometry x="10" y="81.375" width="220" height="34.875" as="geometry" />
        </mxCell>
        <mxCell id="dW56vIqUSqdHFLQPqZOG-96" value="CalculateAttenuation and GetHistoricalBoost" style="rounded=1;whiteSpace=wrap;html=1;fillColor=#ffe0b2;strokeColor=#f57c00;fontSize=10;fontStyle=2" parent="dW56vIqUSqdHFLQPqZOG-92" vertex="1">
          <mxGeometry x="10" y="127.87500000000001" width="220" height="34.875" as="geometry" />
        </mxCell>
        <mxCell id="dW56vIqUSqdHFLQPqZOG-97" value="" style="group" parent="1" connectable="0" vertex="1">
          <mxGeometry x="1027" y="722" width="501" height="120" as="geometry" />
        </mxCell>
        <mxCell id="dW56vIqUSqdHFLQPqZOG-98" value="&lt;b&gt;Test Prioritization &amp;amp; Selection&lt;/b&gt;" style="rounded=1;whiteSpace=wrap;html=1;fillColor=#f8cecc;strokeColor=#b85450;verticalAlign=top;align=center;container=0;" parent="dW56vIqUSqdHFLQPqZOG-97" vertex="1">
          <mxGeometry width="501" height="120" as="geometry" />
        </mxCell>
        <mxCell id="dW56vIqUSqdHFLQPqZOG-99" value="SortByImpactDesc(I)" style="rounded=1;whiteSpace=wrap;html=1;fillColor=#ffe0b2;strokeColor=#f57c00;fontSize=10;fontStyle=2" parent="dW56vIqUSqdHFLQPqZOG-97" vertex="1">
          <mxGeometry x="20.702479338842977" y="30" width="455.4545454545455" height="30" as="geometry" />
        </mxCell>
        <mxCell id="dW56vIqUSqdHFLQPqZOG-100" value="Categorize Tests (Critical, High, Med, Low)" style="rounded=1;whiteSpace=wrap;html=1;fillColor=#ffe0b2;strokeColor=#f57c00;fontSize=10;fontStyle=2" parent="dW56vIqUSqdHFLQPqZOG-97" vertex="1">
          <mxGeometry x="20.702479338842977" y="70" width="455.4545454545455" height="30" as="geometry" />
        </mxCell>
        <mxCell id="dW56vIqUSqdHFLQPqZOG-101" style="edgeStyle=orthogonalEdgeStyle;rounded=0;orthogonalLoop=1;jettySize=auto;html=1;entryX=0.5;entryY=1;entryDx=0;entryDy=0;curved=1;" parent="1" source="dW56vIqUSqdHFLQPqZOG-93" target="dW56vIqUSqdHFLQPqZOG-98" edge="1">
          <mxGeometry relative="1" as="geometry" />
        </mxCell>
        <mxCell id="dW56vIqUSqdHFLQPqZOG-102" value="&lt;span style=&quot;font-size: 10px;&quot;&gt;Calculated Test Impact Scores (I)&lt;/span&gt;" style="edgeLabel;html=1;align=center;verticalAlign=middle;resizable=0;points=[];labelBackgroundColor=none;" parent="dW56vIqUSqdHFLQPqZOG-101" connectable="0" vertex="1">
          <mxGeometry x="0.0563" y="2" relative="1" as="geometry">
            <mxPoint x="63" y="-15" as="offset" />
          </mxGeometry>
        </mxCell>
        <mxCell id="dW56vIqUSqdHFLQPqZOG-103" style="edgeStyle=orthogonalEdgeStyle;rounded=0;orthogonalLoop=1;jettySize=auto;html=1;curved=1;" parent="1" source="dW56vIqUSqdHFLQPqZOG-107" target="dW56vIqUSqdHFLQPqZOG-86" edge="1">
          <mxGeometry relative="1" as="geometry">
            <Array as="points">
              <mxPoint x="1272" y="1195" />
              <mxPoint x="1137" y="1195" />
            </Array>
          </mxGeometry>
        </mxCell>
        <mxCell id="dW56vIqUSqdHFLQPqZOG-104" value="&lt;span style=&quot;font-size: 10px;&quot;&gt;Graph Context for Analysis&lt;/span&gt;" style="edgeLabel;html=1;align=center;verticalAlign=middle;resizable=0;points=[];" parent="dW56vIqUSqdHFLQPqZOG-103" connectable="0" vertex="1">
          <mxGeometry x="0.101" relative="1" as="geometry">
            <mxPoint x="-28" y="-21" as="offset" />
          </mxGeometry>
        </mxCell>
        <mxCell id="dW56vIqUSqdHFLQPqZOG-105" style="edgeStyle=orthogonalEdgeStyle;rounded=0;orthogonalLoop=1;jettySize=auto;html=1;curved=1;" parent="1" source="dW56vIqUSqdHFLQPqZOG-107" target="dW56vIqUSqdHFLQPqZOG-93" edge="1">
          <mxGeometry relative="1" as="geometry">
            <Array as="points">
              <mxPoint x="1272" y="1196" />
              <mxPoint x="1433" y="1196" />
            </Array>
          </mxGeometry>
        </mxCell>
        <mxCell id="dW56vIqUSqdHFLQPqZOG-106" value="&lt;span style=&quot;font-size: 10px;&quot;&gt;Graph Structure &amp;amp; Edge Weights&lt;/span&gt;" style="edgeLabel;html=1;align=center;verticalAlign=middle;resizable=0;points=[];" parent="dW56vIqUSqdHFLQPqZOG-105" connectable="0" vertex="1">
          <mxGeometry x="0.2407" y="7" relative="1" as="geometry">
            <mxPoint y="-11" as="offset" />
          </mxGeometry>
        </mxCell>
        <mxCell id="dW56vIqUSqdHFLQPqZOG-107" value="" style="shape=cylinder3;whiteSpace=wrap;html=1;boundedLbl=1;backgroundOutline=1;size=15;rounded=1;fillColor=#f5f5f5;strokeColor=#666666;fontColor=#333333;" parent="1" vertex="1">
          <mxGeometry x="1090" y="1261" width="363" height="152" as="geometry" />
        </mxCell>
        <mxCell id="dW56vIqUSqdHFLQPqZOG-108" value="&lt;b&gt;Knowledge Graph (G)&lt;/b&gt;&lt;br&gt;&lt;i style=&quot;&quot;&gt;Nodes, Edges, Weights&lt;/i&gt;" style="text;html=1;align=center;verticalAlign=middle;whiteSpace=wrap;rounded=0;" parent="1" vertex="1">
          <mxGeometry x="1137.5" y="1419" width="268" height="30" as="geometry" />
        </mxCell>
        <mxCell id="dW56vIqUSqdHFLQPqZOG-109" style="edgeStyle=orthogonalEdgeStyle;rounded=0;orthogonalLoop=1;jettySize=auto;html=1;entryX=0;entryY=0.5;entryDx=0;entryDy=0;entryPerimeter=0;exitX=0.5;exitY=1;exitDx=0;exitDy=0;curved=1;" parent="1" source="dW56vIqUSqdHFLQPqZOG-67" target="dW56vIqUSqdHFLQPqZOG-107" edge="1">
          <mxGeometry relative="1" as="geometry">
            <mxPoint x="709" y="1168" as="sourcePoint" />
          </mxGeometry>
        </mxCell>
        <mxCell id="dW56vIqUSqdHFLQPqZOG-110" value="&lt;span style=&quot;font-size: 10px;&quot;&gt;Initial Knowledge Graph&lt;/span&gt;" style="edgeLabel;html=1;align=center;verticalAlign=middle;resizable=0;points=[];" parent="dW56vIqUSqdHFLQPqZOG-109" connectable="0" vertex="1">
          <mxGeometry x="0.132" y="3" relative="1" as="geometry">
            <mxPoint x="27" y="-33" as="offset" />
          </mxGeometry>
        </mxCell>
        <mxCell id="dW56vIqUSqdHFLQPqZOG-111" style="edgeStyle=orthogonalEdgeStyle;rounded=0;orthogonalLoop=1;jettySize=auto;html=1;" parent="1" edge="1">
          <mxGeometry relative="1" as="geometry">
            <mxPoint x="1563.0000000000002" y="763" as="sourcePoint" />
            <mxPoint x="1603" y="763" as="targetPoint" />
          </mxGeometry>
        </mxCell>
        <mxCell id="dW56vIqUSqdHFLQPqZOG-112" style="edgeStyle=orthogonalEdgeStyle;rounded=0;orthogonalLoop=1;jettySize=auto;html=1;" parent="1" source="dW56vIqUSqdHFLQPqZOG-113" edge="1">
          <mxGeometry relative="1" as="geometry">
            <mxPoint x="1636.0833333333335" y="660" as="targetPoint" />
          </mxGeometry>
        </mxCell>
        <mxCell id="dW56vIqUSqdHFLQPqZOG-113" value="&lt;b style=&quot;color: rgb(0, 0, 0); text-wrap-mode: wrap;&quot;&gt;Prioritized Testcases&lt;/b&gt;" style="sketch=0;outlineConnect=0;fontColor=#333333;fillColor=#000000;strokeColor=#666666;dashed=0;verticalLabelPosition=bottom;verticalAlign=top;align=center;html=1;fontSize=12;fontStyle=0;aspect=fixed;pointerEvents=1;shape=mxgraph.aws4.ecs_service;" parent="1" vertex="1">
          <mxGeometry x="1604" y="730" width="64.19" height="79" as="geometry" />
        </mxCell>
        <mxCell id="dW56vIqUSqdHFLQPqZOG-114" style="rounded=0;orthogonalLoop=1;jettySize=auto;html=1;" parent="1" target="dW56vIqUSqdHFLQPqZOG-118" edge="1">
          <mxGeometry relative="1" as="geometry">
            <mxPoint x="1727" y="656" as="sourcePoint" />
          </mxGeometry>
        </mxCell>
        <mxCell id="dW56vIqUSqdHFLQPqZOG-115" style="edgeStyle=orthogonalEdgeStyle;rounded=0;orthogonalLoop=1;jettySize=auto;html=1;startArrow=classic;startFill=1;" parent="1" source="dW56vIqUSqdHFLQPqZOG-116" edge="1">
          <mxGeometry relative="1" as="geometry">
            <mxPoint x="1329" y="586" as="targetPoint" />
            <Array as="points">
              <mxPoint x="1449" y="586" />
            </Array>
          </mxGeometry>
        </mxCell>
        <mxCell id="dW56vIqUSqdHFLQPqZOG-116" value="&lt;b&gt;Test Execution Environment&lt;/b&gt;" style="shape=cloud;whiteSpace=wrap;html=1;rounded=1;fillColor=#f5f5f5;strokeColor=#666666;" parent="1" vertex="1">
          <mxGeometry x="1538.6" y="504" width="267" height="163" as="geometry" />
        </mxCell>
        <mxCell id="dW56vIqUSqdHFLQPqZOG-117" style="rounded=0;orthogonalLoop=1;jettySize=auto;html=1;" parent="1" edge="1">
          <mxGeometry relative="1" as="geometry">
            <mxPoint x="1723" y="933" as="targetPoint" />
            <mxPoint x="1722.8000000000002" y="838" as="sourcePoint" />
          </mxGeometry>
        </mxCell>
        <mxCell id="dW56vIqUSqdHFLQPqZOG-118" value="&lt;b&gt;Test Results&lt;/b&gt;" style="sketch=0;outlineConnect=0;fontColor=#333333;fillColor=#333333;strokeColor=#666666;dashed=0;verticalLabelPosition=bottom;verticalAlign=top;align=center;html=1;fontSize=12;fontStyle=0;aspect=fixed;pointerEvents=1;shape=mxgraph.aws4.ecs_copilot_cli;" parent="1" vertex="1">
          <mxGeometry x="1689" y="738" width="77.45" height="71" as="geometry" />
        </mxCell>
        <mxCell id="dW56vIqUSqdHFLQPqZOG-119" style="edgeStyle=orthogonalEdgeStyle;rounded=0;orthogonalLoop=1;jettySize=auto;html=1;entryX=1;entryY=0.5;entryDx=0;entryDy=0;entryPerimeter=0;curved=1;exitX=0.5;exitY=1;exitDx=0;exitDy=0;" parent="1" source="dW56vIqUSqdHFLQPqZOG-122" target="dW56vIqUSqdHFLQPqZOG-107" edge="1">
          <mxGeometry relative="1" as="geometry" />
        </mxCell>
        <mxCell id="dW56vIqUSqdHFLQPqZOG-120" value="&lt;span style=&quot;font-size: 10px;&quot;&gt;Updated Graph Weights &amp;amp; Properties (G&#39;)&lt;/span&gt;" style="edgeLabel;html=1;align=center;verticalAlign=middle;resizable=0;points=[];" parent="dW56vIqUSqdHFLQPqZOG-119" connectable="0" vertex="1">
          <mxGeometry x="0.1687" y="2" relative="1" as="geometry">
            <mxPoint x="25" y="-100" as="offset" />
          </mxGeometry>
        </mxCell>
        <mxCell id="dW56vIqUSqdHFLQPqZOG-121" value="" style="group" parent="1" connectable="0" vertex="1">
          <mxGeometry x="1583" y="937" width="269" height="175" as="geometry" />
        </mxCell>
        <mxCell id="dW56vIqUSqdHFLQPqZOG-122" value="" style="rounded=1;whiteSpace=wrap;html=1;fillColor=#f5f5f5;strokeColor=#666666;fontColor=#333333;" parent="dW56vIqUSqdHFLQPqZOG-121" vertex="1">
          <mxGeometry y="27" width="269" height="148" as="geometry" />
        </mxCell>
        <mxCell id="dW56vIqUSqdHFLQPqZOG-123" value="&lt;span style=&quot;font-weight: 700; text-wrap-mode: nowrap;&quot;&gt;Phase 3:&amp;nbsp;&lt;/span&gt;&lt;span style=&quot;text-wrap-mode: nowrap;&quot;&gt;&lt;b&gt;Reinforcement Learning&lt;/b&gt;&lt;/span&gt;" style="text;html=1;align=center;verticalAlign=middle;whiteSpace=wrap;rounded=0;" parent="dW56vIqUSqdHFLQPqZOG-121" vertex="1">
          <mxGeometry x="3" width="265" height="30" as="geometry" />
        </mxCell>
        <mxCell id="dW56vIqUSqdHFLQPqZOG-124" value="FindContributingPaths(...)" style="rounded=1;whiteSpace=wrap;html=1;fillColor=#e1f5fe;strokeColor=#0288d1;fontSize=10;fontStyle=2" parent="dW56vIqUSqdHFLQPqZOG-121" vertex="1">
          <mxGeometry x="24.5" y="47" width="220" height="30" as="geometry" />
        </mxCell>
        <mxCell id="dW56vIqUSqdHFLQPqZOG-125" value="Update Edge Weights W&#39;(edge)" style="rounded=1;whiteSpace=wrap;html=1;fillColor=#e1f5fe;strokeColor=#0288d1;fontSize=10;fontStyle=2" parent="dW56vIqUSqdHFLQPqZOG-121" vertex="1">
          <mxGeometry x="24.5" y="87" width="220" height="30" as="geometry" />
        </mxCell>
        <mxCell id="dW56vIqUSqdHFLQPqZOG-126" value="UpdateNodeProperties(G&#39;, result)" style="rounded=1;whiteSpace=wrap;html=1;fillColor=#e1f5fe;strokeColor=#0288d1;fontSize=10;fontStyle=2" parent="dW56vIqUSqdHFLQPqZOG-121" vertex="1">
          <mxGeometry x="24.5" y="127" width="220" height="30" as="geometry" />
        </mxCell>
        <mxCell id="dW56vIqUSqdHFLQPqZOG-127" value="" style="group" parent="1" connectable="0" vertex="1">
          <mxGeometry x="1298" y="1278" width="163" height="151" as="geometry" />
        </mxCell>
        <mxCell id="dW56vIqUSqdHFLQPqZOG-128" value="" style="group" parent="dW56vIqUSqdHFLQPqZOG-127" connectable="0" vertex="1">
          <mxGeometry width="163.00000000000003" height="120.44047619047619" as="geometry" />
        </mxCell>
        <mxCell id="dW56vIqUSqdHFLQPqZOG-129" value="" style="image;sketch=0;aspect=fixed;html=1;points=[];align=center;fontSize=12;image=img/lib/mscae/Resource_Graph_Explorer.svg;" parent="dW56vIqUSqdHFLQPqZOG-128" vertex="1">
          <mxGeometry x="66.34988236923557" y="58.58611229951368" width="58.08106582993198" height="59.266393704012216" as="geometry" />
        </mxCell>
        <mxCell id="dW56vIqUSqdHFLQPqZOG-130" value="" style="image;sketch=0;aspect=fixed;html=1;points=[];align=center;fontSize=12;image=img/lib/mscae/Resource_Graph_Explorer.svg;rotation=-225;" parent="dW56vIqUSqdHFLQPqZOG-128" vertex="1">
          <mxGeometry x="85.3625482300455" y="12.373081806265834" width="58.08106582993198" height="59.266393704012216" as="geometry" />
        </mxCell>
        <mxCell id="dW56vIqUSqdHFLQPqZOG-131" value="" style="image;sketch=0;aspect=fixed;html=1;points=[];align=center;fontSize=12;image=img/lib/mscae/Resource_Graph_Explorer.svg;rotation=-225;" parent="dW56vIqUSqdHFLQPqZOG-128" vertex="1">
          <mxGeometry x="17.85666501878399" y="40.811869802110664" width="58.08106582993198" height="59.266393704012216" as="geometry" />
        </mxCell>
        <mxCell id="dW56vIqUSqdHFLQPqZOG-132" value="" style="group;rotation=75;" parent="1" connectable="0" vertex="1">
          <mxGeometry x="1103" y="1285.86" width="163" height="113.17" as="geometry" />
        </mxCell>
        <mxCell id="dW56vIqUSqdHFLQPqZOG-133" value="" style="group;rotation=75;" parent="dW56vIqUSqdHFLQPqZOG-132" connectable="0" vertex="1">
          <mxGeometry x="12" y="9" width="152" height="102.17" as="geometry" />
        </mxCell>
        <mxCell id="dW56vIqUSqdHFLQPqZOG-134" value="" style="image;sketch=0;aspect=fixed;html=1;points=[];align=center;fontSize=12;image=img/lib/mscae/Resource_Graph_Explorer.svg;rotation=75;" parent="dW56vIqUSqdHFLQPqZOG-133" vertex="1">
          <mxGeometry x="20" y="43" width="41.690090196945036" height="42.54090836422962" as="geometry" />
        </mxCell>
        <mxCell id="dW56vIqUSqdHFLQPqZOG-135" value="" style="image;sketch=0;aspect=fixed;html=1;points=[];align=center;fontSize=12;image=img/lib/mscae/Resource_Graph_Explorer.svg;rotation=-150;" parent="dW56vIqUSqdHFLQPqZOG-133" vertex="1">
          <mxGeometry x="57" y="47" width="41.690090196945036" height="42.54090836422962" as="geometry" />
        </mxCell>
        <mxCell id="dW56vIqUSqdHFLQPqZOG-136" value="" style="image;sketch=0;aspect=fixed;html=1;points=[];align=center;fontSize=12;image=img/lib/mscae/Resource_Graph_Explorer.svg;rotation=-150;" parent="dW56vIqUSqdHFLQPqZOG-133" vertex="1">
          <mxGeometry x="24" y="5" width="41.690090196945036" height="42.54090836422962" as="geometry" />
        </mxCell>
        <mxCell id="dW56vIqUSqdHFLQPqZOG-137" value="" style="image;sketch=0;aspect=fixed;html=1;points=[];align=center;fontSize=12;image=img/lib/mscae/Resource_Graph_Explorer.svg;" parent="1" vertex="1">
          <mxGeometry x="1282.3498823692355" y="1328.5861122995138" width="58.08106582993198" height="59.266393704012216" as="geometry" />
        </mxCell>
        <mxCell id="dW56vIqUSqdHFLQPqZOG-138" value="" style="image;sketch=0;aspect=fixed;html=1;points=[];align=center;fontSize=12;image=img/lib/mscae/Resource_Graph_Explorer.svg;rotation=-225;" parent="1" vertex="1">
          <mxGeometry x="1301.3625482300456" y="1286.3730818062659" width="58.08106582993198" height="59.266393704012216" as="geometry" />
        </mxCell>
        <mxCell id="dW56vIqUSqdHFLQPqZOG-139" value="" style="image;sketch=0;aspect=fixed;html=1;points=[];align=center;fontSize=12;image=img/lib/mscae/Resource_Graph_Explorer.svg;rotation=-225;" parent="1" vertex="1">
          <mxGeometry x="1233.856665018784" y="1310.8118698021108" width="58.08106582993198" height="59.266393704012216" as="geometry" />
        </mxCell>
        <mxCell id="dW56vIqUSqdHFLQPqZOG-140" value="" style="group;rotation=90;" parent="1" connectable="0" vertex="1">
          <mxGeometry x="1155" y="1282.37" width="117" height="111.05" as="geometry" />
        </mxCell>
        <mxCell id="dW56vIqUSqdHFLQPqZOG-141" value="" style="image;sketch=0;aspect=fixed;html=1;points=[];align=center;fontSize=12;image=img/lib/mscae/Resource_Graph_Explorer.svg;rotation=90;" parent="dW56vIqUSqdHFLQPqZOG-140" vertex="1">
          <mxGeometry x="29" y="44" width="41.690090196945036" height="42.54090836422962" as="geometry" />
        </mxCell>
        <mxCell id="dW56vIqUSqdHFLQPqZOG-142" value="" style="image;sketch=0;aspect=fixed;html=1;points=[];align=center;fontSize=12;image=img/lib/mscae/Resource_Graph_Explorer.svg;rotation=-135;" parent="dW56vIqUSqdHFLQPqZOG-140" vertex="1">
          <mxGeometry x="42" y="9" width="41.690090196945036" height="42.54090836422962" as="geometry" />
        </mxCell>
      </root>
    </mxGraphModel>
  </diagram>
</mxfile>